<svg width="22" height="22" viewBox="0 0 22 22" fill="none" xmlns="http://www.w3.org/2000/svg">
<path d="M19.0231 11.3891V10.8011V10.2054L20.5086 8.90557C20.7824 8.66421 20.9621 8.33383 21.0159 7.9728C21.0697 7.61177 20.9942 7.24334 20.8026 6.93264L18.9767 3.83784C18.841 3.60283 18.6459 3.40764 18.411 3.27185C18.176 3.13605 17.9095 3.06441 17.6382 3.06414C17.47 3.06285 17.3028 3.08898 17.143 3.14151L15.2629 3.77594C14.9383 3.56024 14.5997 3.36638 14.2494 3.19567L13.8548 1.24594C13.784 0.889734 13.5902 0.569759 13.3073 0.342029C13.0245 0.1143 12.6705 -0.00667408 12.3074 0.000284281H8.68646C8.32336 -0.00667408 7.96938 0.1143 7.68649 0.342029C7.40359 0.569759 7.20981 0.889734 7.13906 1.24594L6.74447 3.19567C6.39161 3.36634 6.05044 3.56019 5.72319 3.77594L3.88178 3.11056C3.72031 3.06849 3.55309 3.05281 3.38661 3.06414C3.11526 3.06441 2.84874 3.13605 2.61381 3.27185C2.37888 3.40764 2.18379 3.60283 2.04811 3.83784L0.222181 6.93264C0.0415892 7.24288 -0.025518 7.60626 0.0323529 7.96055C0.0902238 8.31483 0.269472 8.63797 0.539398 8.87462L2.00169 10.2131V11.3969L0.539398 12.6967C0.261847 12.935 0.0776965 13.2639 0.0196251 13.6251C-0.0384464 13.9863 0.0333174 14.3563 0.222181 14.6696L2.04811 17.7644C2.18379 17.9994 2.37888 18.1946 2.61381 18.3304C2.84874 18.4662 3.11526 18.5379 3.38661 18.5381C3.55478 18.5394 3.72203 18.5133 3.88178 18.4608L5.76187 17.8263C6.08647 18.042 6.42507 18.2359 6.77542 18.4066L7.17001 20.3563C7.24076 20.7125 7.43454 21.0325 7.71743 21.2602C8.00033 21.488 8.35431 21.6089 8.71741 21.602H12.3693C12.7324 21.6089 13.0863 21.488 13.3692 21.2602C13.6521 21.0325 13.8459 20.7125 13.9167 20.3563L14.3113 18.4066C14.6641 18.2359 15.0053 18.0421 15.3325 17.8263L17.2049 18.4608C17.3646 18.5133 17.5319 18.5394 17.7001 18.5381C17.9714 18.5379 18.2379 18.4662 18.4729 18.3304C18.7078 18.1946 18.9029 17.9994 19.0386 17.7644L20.8026 14.6696C20.9832 14.3594 21.0503 13.996 20.9924 13.6417C20.9346 13.2874 20.7553 12.9643 20.4854 12.7276L19.0231 11.3891ZM17.6382 16.9907L14.9844 16.0932C14.3631 16.6194 13.6531 17.0308 12.8876 17.308L12.3383 20.0855H8.68646L8.13713 17.3389C7.37768 17.0539 6.67152 16.6432 6.04814 16.1242L3.38661 16.9907L1.56068 13.8959L3.66515 12.0391C3.52209 11.2382 3.52209 10.4183 3.66515 9.61737L1.56068 7.70634L3.38661 4.61154L6.0404 5.50903C6.66163 4.98283 7.37163 4.5715 8.13713 4.29432L8.68646 1.51674H12.3383L12.8876 4.26337C13.6471 4.54842 14.3533 4.95904 14.9766 5.47808L17.6382 4.61154L19.4641 7.70634L17.3596 9.56322C17.5027 10.3641 17.5027 11.184 17.3596 11.9849L19.4641 13.8959L17.6382 16.9907Z" fill="#2C2C2C"/>
<path d="M10.5124 15.4433C9.5943 15.4433 8.69678 15.1711 7.93337 14.661C7.16997 14.1509 6.57496 13.4259 6.22361 12.5776C5.87225 11.7294 5.78032 10.796 5.95944 9.89549C6.13856 8.99499 6.58069 8.16783 7.22991 7.51861C7.87913 6.86938 8.70629 6.42726 9.60679 6.24814C10.5073 6.06902 11.4407 6.16095 12.2889 6.5123C13.1372 6.86366 13.8622 7.45866 14.3723 8.22207C14.8824 8.98547 15.1546 9.883 15.1546 10.8011C15.1608 11.4125 15.045 12.0189 14.8139 12.5849C14.5828 13.151 14.2411 13.6652 13.8088 14.0975C13.3765 14.5298 12.8623 14.8715 12.2963 15.1026C11.7302 15.3337 11.1238 15.4495 10.5124 15.4433V15.4433ZM10.5124 7.70634C10.1034 7.69681 9.69672 7.77035 9.31693 7.9225C8.93715 8.07466 8.59217 8.30227 8.30287 8.59157C8.01357 8.88087 7.78596 9.22584 7.6338 9.60563C7.48165 9.98541 7.40811 10.3921 7.41764 10.8011C7.40811 11.2102 7.48165 11.6169 7.6338 11.9966C7.78596 12.3764 8.01357 12.7214 8.30287 13.0107C8.59217 13.3 8.93715 13.5276 9.31693 13.6798C9.69672 13.8319 10.1034 13.9055 10.5124 13.8959C10.9215 13.9055 11.3282 13.8319 11.7079 13.6798C12.0877 13.5276 12.4327 13.3 12.722 13.0107C13.0113 12.7214 13.2389 12.3764 13.3911 11.9966C13.5432 11.6169 13.6168 11.2102 13.6072 10.8011C13.6168 10.3921 13.5432 9.98541 13.3911 9.60563C13.2389 9.22584 13.0113 8.88087 12.722 8.59157C12.4327 8.30227 12.0877 8.07466 11.7079 7.9225C11.3282 7.77035 10.9215 7.69681 10.5124 7.70634Z" fill="#2C2C2C"/>
</svg>
