<svg width="22" height="19" viewBox="0 0 22 19" fill="none" xmlns="http://www.w3.org/2000/svg">
<path d="M7.51385 3.00134C7.51385 2.20533 7.83007 1.44193 8.39293 0.879072C8.95579 0.316212 9.71919 0 10.5152 0C11.3112 0 12.0746 0.316212 12.6375 0.879072C13.2003 1.44193 13.5165 2.20533 13.5165 3.00134C13.5165 3.79734 13.2003 4.56075 12.6375 5.12361C12.0746 5.68647 11.3112 6.00268 10.5152 6.00268C9.71919 6.00268 8.95579 5.68647 8.39293 5.12361C7.83007 4.56075 7.51385 3.79734 7.51385 3.00134V3.00134ZM10.5152 1.50217C10.3183 1.50217 10.1234 1.54095 9.94149 1.61629C9.7596 1.69163 9.59433 1.80206 9.45512 1.94127C9.31591 2.08048 9.20548 2.24575 9.13014 2.42763C9.0548 2.60952 9.01603 2.80447 9.01603 3.00134C9.01603 3.19821 9.0548 3.39316 9.13014 3.57505C9.20548 3.75693 9.31591 3.9222 9.45512 4.06141C9.59433 4.20062 9.7596 4.31105 9.94149 4.38639C10.1234 4.46173 10.3183 4.50051 10.5152 4.50051C10.9128 4.50051 11.2941 4.34256 11.5753 4.06141C11.8564 3.78026 12.0144 3.39894 12.0144 3.00134C12.0144 2.60374 11.8564 2.22242 11.5753 1.94127C11.2941 1.66012 10.9128 1.50217 10.5152 1.50217V1.50217Z" fill="#2C2C2C"/>
<path d="M15.0217 3.75243C15.0217 3.45652 15.0799 3.16352 15.1932 2.89014C15.3064 2.61676 15.4724 2.36837 15.6816 2.15913C15.8909 1.9499 16.1393 1.78392 16.4126 1.67069C16.686 1.55745 16.979 1.49917 17.2749 1.49917C17.5708 1.49917 17.8638 1.55745 18.1372 1.67069C18.4106 1.78392 18.659 1.9499 18.8682 2.15913C19.0775 2.36837 19.2434 2.61676 19.3567 2.89014C19.4699 3.16352 19.5282 3.45652 19.5282 3.75243C19.5282 4.35003 19.2908 4.92315 18.8682 5.34572C18.4457 5.76829 17.8725 6.00568 17.2749 6.00568C16.6773 6.00568 16.1042 5.76829 15.6816 5.34572C15.2591 4.92315 15.0217 4.35003 15.0217 3.75243ZM17.2749 3.00134C17.0757 3.00134 16.8847 3.08047 16.7438 3.22133C16.603 3.36218 16.5238 3.55323 16.5238 3.75243C16.5238 3.95163 16.603 4.14267 16.7438 4.28352C16.8847 4.42438 17.0757 4.50351 17.2749 4.50351C17.4741 4.50351 17.6652 4.42438 17.806 4.28352C17.9469 4.14267 18.026 3.95163 18.026 3.75243C18.026 3.55323 17.9469 3.36218 17.806 3.22133C17.6652 3.08047 17.4741 3.00134 17.2749 3.00134Z" fill="#2C2C2C"/>
<path d="M3.75539 1.49917C3.15779 1.49917 2.58467 1.73656 2.1621 2.15913C1.73953 2.5817 1.50214 3.15483 1.50214 3.75243C1.50214 4.35003 1.73953 4.92315 2.1621 5.34572C2.58467 5.76829 3.15779 6.00568 3.75539 6.00568C4.353 6.00568 4.92612 5.76829 5.34869 5.34572C5.77126 4.92315 6.00865 4.35003 6.00865 3.75243C6.00865 3.15483 5.77126 2.5817 5.34869 2.15913C4.92612 1.73656 4.353 1.49917 3.75539 1.49917ZM3.00431 3.75243C3.00431 3.55323 3.08344 3.36218 3.2243 3.22133C3.36515 3.08047 3.55619 3.00134 3.75539 3.00134C3.95459 3.00134 4.14564 3.08047 4.28649 3.22133C4.42735 3.36218 4.50648 3.55323 4.50648 3.75243C4.50648 3.95163 4.42735 4.14267 4.28649 4.28352C4.14564 4.42438 3.95459 4.50351 3.75539 4.50351C3.55619 4.50351 3.36515 4.42438 3.2243 4.28352C3.08344 4.14267 3.00431 3.95163 3.00431 3.75243Z" fill="#2C2C2C"/>
<path d="M4.9091 7.50786C4.64472 7.96429 4.50583 8.48256 4.50652 9.01003H1.50217V12.7655C1.50205 13.1391 1.59485 13.5069 1.77221 13.8358C1.94958 14.1647 2.20594 14.4442 2.51822 14.6494C2.83051 14.8546 3.18891 14.9788 3.56116 15.0111C3.93342 15.0433 4.30784 14.9824 4.65073 14.834C4.76189 15.3312 4.93614 15.8059 5.16146 16.249C4.59134 16.4792 3.97341 16.5659 3.36195 16.5015C2.75048 16.437 2.16419 16.2235 1.65456 15.8795C1.14492 15.5356 0.727531 15.0717 0.439044 14.5288C0.150557 13.9858 -0.000204367 13.3803 2.0792e-07 12.7655V9.01003C2.0792e-07 8.61163 0.158264 8.22955 0.439976 7.94783C0.721688 7.66612 1.10377 7.50786 1.50217 7.50786H4.9091Z" fill="#2C2C2C"/>
<path d="M15.869 16.249C16.4391 16.4792 17.057 16.5659 17.6685 16.5015C18.2799 16.437 18.8662 16.2235 19.3759 15.8795C19.8855 15.5356 20.3029 15.0717 20.5914 14.5288C20.8799 13.9858 21.0306 13.3803 21.0304 12.7655V9.01003C21.0304 8.61163 20.8722 8.22955 20.5904 7.94783C20.3087 7.66612 19.9266 7.50786 19.5282 7.50786H16.1213C16.3767 7.9495 16.5239 8.46174 16.5239 9.01003H19.5282V12.7655C19.5284 13.1391 19.4356 13.5069 19.2582 13.8358C19.0808 14.1647 18.8245 14.4442 18.5122 14.6494C18.1999 14.8546 17.8415 14.9788 17.4693 15.0111C17.097 15.0433 16.7226 14.9824 16.3797 14.834C16.267 15.3312 16.0943 15.8059 15.869 16.249Z" fill="#2C2C2C"/>
<path d="M7.51084 7.50786C7.11244 7.50786 6.73036 7.66612 6.44864 7.94783C6.16693 8.22955 6.00867 8.61163 6.00867 9.01003V13.5165C6.00867 14.7117 6.48346 15.858 7.3286 16.7031C8.17373 17.5483 9.31998 18.0231 10.5152 18.0231C11.7104 18.0231 12.8566 17.5483 13.7018 16.7031C14.5469 15.858 15.0217 14.7117 15.0217 13.5165V9.01003C15.0217 8.61163 14.8634 8.22955 14.5817 7.94783C14.3 7.66612 13.9179 7.50786 13.5195 7.50786H7.51084ZM7.51084 9.01003H13.5195V13.5165C13.5195 14.3133 13.203 15.0775 12.6396 15.6409C12.0762 16.2044 11.312 16.5209 10.5152 16.5209C9.71838 16.5209 8.95421 16.2044 8.39079 15.6409C7.82737 15.0775 7.51084 14.3133 7.51084 13.5165V9.01003Z" fill="#2C2C2C"/>
</svg>
