<svg width="17" height="14" viewBox="0 0 17 14" fill="none" xmlns="http://www.w3.org/2000/svg">
<path d="M0.783794 0.948889H3.87686C3.95889 0.948889 4.03756 0.916301 4.09557 0.858295C4.15357 0.800289 4.18616 0.721616 4.18616 0.639583C4.18616 0.55755 4.15357 0.478876 4.09557 0.42087C4.03756 0.362864 3.95889 0.330276 3.87686 0.330276H0.783794C0.70176 0.330276 0.623087 0.362864 0.565081 0.42087C0.507075 0.478876 0.474487 0.55755 0.474487 0.639583C0.474487 0.721616 0.507075 0.800289 0.565081 0.858295C0.623087 0.916301 0.70176 0.948889 0.783794 0.948889V0.948889Z" fill="#2C2C2C"/>
<path d="M0.783794 8.37224H8.20714C8.28918 8.37224 8.36785 8.33965 8.42586 8.28165C8.48386 8.22364 8.51645 8.14497 8.51645 8.06293C8.51645 7.9809 8.48386 7.90223 8.42586 7.84422C8.36785 7.78621 8.28918 7.75363 8.20714 7.75363H0.783794C0.70176 7.75363 0.623087 7.78621 0.565081 7.84422C0.507075 7.90223 0.474487 7.9809 0.474487 8.06293C0.474487 8.14497 0.507075 8.22364 0.565081 8.28165C0.623087 8.33965 0.70176 8.37224 0.783794 8.37224V8.37224Z" fill="#2C2C2C"/>
<path d="M0.783794 10.8467H8.20714C8.28918 10.8467 8.36785 10.8141 8.42586 10.7561C8.48386 10.6981 8.51645 10.6194 8.51645 10.5374C8.51645 10.4553 8.48386 10.3767 8.42586 10.3187C8.36785 10.2607 8.28918 10.2281 8.20714 10.2281H0.783794C0.70176 10.2281 0.623087 10.2607 0.565081 10.3187C0.507075 10.3767 0.474487 10.4553 0.474487 10.5374C0.474487 10.6194 0.507075 10.6981 0.565081 10.7561C0.623087 10.8141 0.70176 10.8467 0.783794 10.8467V10.8467Z" fill="#2C2C2C"/>
<path d="M12.5375 8.37224H16.2491C16.3312 8.37224 16.4098 8.33965 16.4678 8.28165C16.5258 8.22364 16.5584 8.14497 16.5584 8.06293C16.5584 7.9809 16.5258 7.90223 16.4678 7.84422C16.4098 7.78621 16.3312 7.75363 16.2491 7.75363H12.5375C12.4554 7.75363 12.3767 7.78621 12.3187 7.84422C12.2607 7.90223 12.2281 7.9809 12.2281 8.06293C12.2281 8.14497 12.2607 8.22364 12.3187 8.28165C12.3767 8.33965 12.4554 8.37224 12.5375 8.37224Z" fill="#2C2C2C"/>
<path d="M12.5375 10.8467H16.2491C16.3312 10.8467 16.4098 10.8141 16.4678 10.7561C16.5258 10.6981 16.5584 10.6194 16.5584 10.5374C16.5584 10.4553 16.5258 10.3767 16.4678 10.3187C16.4098 10.2607 16.3312 10.2281 16.2491 10.2281H12.5375C12.4554 10.2281 12.3767 10.2607 12.3187 10.3187C12.2607 10.3767 12.2281 10.4553 12.2281 10.5374C12.2281 10.6194 12.2607 10.6981 12.3187 10.7561C12.3767 10.8141 12.4554 10.8467 12.5375 10.8467Z" fill="#2C2C2C"/>
<path d="M12.5375 13.3211H16.2491C16.3312 13.3211 16.4098 13.2886 16.4678 13.2305C16.5258 13.1725 16.5584 13.0939 16.5584 13.0118C16.5584 12.9298 16.5258 12.8511 16.4678 12.7931C16.4098 12.7351 16.3312 12.7025 16.2491 12.7025H12.5375C12.4554 12.7025 12.3767 12.7351 12.3187 12.7931C12.2607 12.8511 12.2281 12.9298 12.2281 13.0118C12.2281 13.0939 12.2607 13.1725 12.3187 13.2305C12.3767 13.2886 12.4554 13.3211 12.5375 13.3211Z" fill="#2C2C2C"/>
</svg>
