<svg width="61" height="61" viewBox="0 0 61 61" fill="none" xmlns="http://www.w3.org/2000/svg">
<path fill-rule="evenodd" clip-rule="evenodd" d="M31.2622 0.947575C31.347 0.462425 30.9925 0 30.5 0V0C13.6553 0 0 13.6553 0 30.5C0 47.3447 13.6553 61 30.5 61C47.3447 61 61 47.3447 61 30.5C61 23.667 58.7531 17.3589 54.9577 12.2741C53.8306 10.7641 51.4874 11.3789 50.4555 12.9554V12.9554C49.7679 14.0058 49.7851 15.3357 50.5104 16.3603C53.3382 20.3549 55 25.2334 55 30.5C55 44.031 44.031 55 30.5 55C16.969 55 6 44.031 6 30.5C6 16.969 16.969 6 30.5 6V6C30.8237 6 31.0793 5.72075 31.0542 5.39799C31.0183 4.93817 31 4.47181 31 4C31 2.95162 31.0905 1.93015 31.2622 0.947575Z" fill="#37B6FF"/>
</svg>
