<svg width="22" height="22" viewBox="0 0 22 22" fill="none" xmlns="http://www.w3.org/2000/svg">
<path d="M10.5164 0C4.71135 0 0 4.71135 0 10.5164C0 16.3215 4.71135 21.0328 10.5164 21.0328C16.3215 21.0328 21.0328 16.3215 21.0328 10.5164C21.0328 4.71135 16.3215 0 10.5164 0ZM10.5164 3.15492C12.2621 3.15492 13.6713 4.56412 13.6713 6.30985C13.6713 8.05557 12.2621 9.46477 10.5164 9.46477C8.77069 9.46477 7.36149 8.05557 7.36149 6.30985C7.36149 4.56412 8.77069 3.15492 10.5164 3.15492ZM10.5164 18.0882C9.26691 18.0882 8.03684 17.779 6.93587 17.1882C5.8349 16.5973 4.89726 15.7432 4.20656 14.7019C4.23811 12.6092 8.41313 11.4629 10.5164 11.4629C12.6092 11.4629 16.7947 12.6092 16.8263 14.7019C16.1356 15.7432 15.1979 16.5973 14.097 17.1882C12.996 17.779 11.7659 18.0882 10.5164 18.0882Z" fill="#2C2C2C"/>
</svg>
