<svg width="22" height="27" viewBox="0 0 22 27" fill="none" xmlns="http://www.w3.org/2000/svg">
<path d="M19.9297 2.40867H14.0222C13.7861 1.7068 13.3356 1.09677 12.7342 0.664621C12.1329 0.23247 11.411 0 10.6705 0C9.92997 0 9.20813 0.23247 8.60679 0.664621C8.00544 1.09677 7.55492 1.7068 7.31879 2.40867H1.64098C1.44005 2.3796 1.23523 2.39348 1.04006 2.44939C0.84488 2.5053 0.663778 2.60196 0.508702 2.733C0.353626 2.86404 0.228103 3.02647 0.140416 3.20959C0.0527281 3.3927 0.00487008 3.59233 0 3.7953V24.8163C0.00107432 24.9995 0.0382178 25.1806 0.109309 25.3495C0.180401 25.5183 0.284048 25.6714 0.414333 25.8002C0.544618 25.929 0.698989 26.0308 0.868632 26.0999C1.03828 26.169 1.21987 26.204 1.40304 26.2029H19.9297C20.1129 26.204 20.2945 26.169 20.4642 26.0999C20.6338 26.0308 20.7882 25.929 20.9185 25.8002C21.0487 25.6714 21.1524 25.5183 21.2235 25.3495C21.2946 25.1806 21.3317 24.9995 21.3328 24.8163V3.7953C21.3317 3.61212 21.2946 3.43096 21.2235 3.26214C21.1524 3.09332 21.0487 2.94016 20.9185 2.8114C20.7882 2.68263 20.6338 2.5808 20.4642 2.5117C20.2945 2.44259 20.1129 2.40759 19.9297 2.40867V2.40867ZM5.16089 4.87014C5.16089 4.65253 5.24734 4.44384 5.40121 4.28997C5.55508 4.13609 5.76378 4.04965 5.98139 4.04965H8.80388V3.53274C8.80388 3.02898 9.004 2.54585 9.36021 2.18963C9.71643 1.83342 10.1996 1.6333 10.7033 1.6333C11.2071 1.6333 11.6902 1.83342 12.0464 2.18963C12.4026 2.54585 12.6028 3.02898 12.6028 3.53274V4.09067H15.4252C15.6429 4.09067 15.8516 4.17712 16.0054 4.33099C16.1593 4.48486 16.2457 4.69356 16.2457 4.91117V6.38805H5.12807L5.16089 4.87014ZM17.0744 12.4433L9.59155 19.9262L5.29217 15.6268C5.07456 15.4092 4.95231 15.114 4.95231 14.8063C4.95231 14.4986 5.07456 14.2034 5.29217 13.9858C5.50978 13.7682 5.80492 13.6459 6.11266 13.6459C6.42041 13.6459 6.71555 13.7682 6.93316 13.9858L9.60796 16.6606L15.4663 10.8023C15.6839 10.5847 15.979 10.4624 16.2868 10.4624C16.5945 10.4624 16.8896 10.5847 17.1073 10.8023C17.3249 11.0199 17.4471 11.315 17.4471 11.6228C17.4471 11.9305 17.3249 12.2257 17.1073 12.4433H17.0744Z" fill="#2C2C2C"/>
</svg>
