<svg width="22" height="12" viewBox="0 0 22 12" fill="none" xmlns="http://www.w3.org/2000/svg">
<path d="M7.72099 8.72766V10.8295C7.72099 11.0153 7.7948 11.1936 7.92619 11.3249C8.05759 11.4563 8.23579 11.5302 8.42161 11.5302H20.3322C20.518 11.5302 20.6962 11.4563 20.8276 11.3249C20.959 11.1936 21.0328 11.0153 21.0328 10.8295V3.8233C21.0328 3.63749 20.959 3.45928 20.8276 3.32789C20.6962 3.19649 20.518 3.12268 20.3322 3.12268H15.4278V2.09276C15.4278 1.90695 15.354 1.72874 15.2226 1.59735C15.0912 1.46596 14.913 1.39214 14.7272 1.39214C14.5414 1.39214 14.3632 1.46596 14.2318 1.59735C14.1004 1.72874 14.0266 1.90695 14.0266 2.09276V3.12268H12.6253V0.614449C11.4348 0.419998 10.2305 0.321593 9.02414 0.320187C6.36374 0.30887 3.73314 0.880427 1.31729 1.99468C0.919678 2.18231 0.584235 2.48008 0.350767 2.85263C0.117298 3.22519 -0.00439704 3.6569 0.000121403 4.09654V8.72766H7.72099ZM19.6316 10.1289H9.12223V4.52393H14.0266V4.81819C14.0266 5.004 14.1004 5.18221 14.2318 5.3136C14.3632 5.44499 14.5414 5.51881 14.7272 5.51881C14.913 5.51881 15.0912 5.44499 15.2226 5.3136C15.354 5.18221 15.4278 5.004 15.4278 4.81819V4.52393H19.6316V10.1289Z" fill="#2C2C2C"/>
</svg>
