<svg width="18" height="16" viewBox="0 0 18 16" fill="none" xmlns="http://www.w3.org/2000/svg">
<path d="M16.2 3.55556H12.6V1.77778L10.8 0H7.2L5.4 1.77778V3.55556H1.8C0.81 3.55556 0 4.35556 0 5.33333V9.77778C0 10.4444 0.36 11.0044 0.9 11.3156V14.2222C0.9 15.2089 1.701 16 2.7 16H15.3C16.299 16 17.1 15.2089 17.1 14.2222V11.3067C17.631 10.9956 18 10.4267 18 9.77778V5.33333C18 4.35556 17.19 3.55556 16.2 3.55556ZM7.2 1.77778H10.8V3.55556H7.2V1.77778ZM1.8 5.33333H16.2V9.77778H11.7V7.11111H6.3V9.77778H1.8V5.33333ZM9.9 10.6667H8.1V8.88889H9.9V10.6667ZM15.3 14.2222H2.7V11.5556H6.3V12.4444H11.7V11.5556H15.3V14.2222Z" fill="#00A47C"/>
</svg>
