<svg width="13" height="18" viewBox="0 0 13 18" fill="none" xmlns="http://www.w3.org/2000/svg">
<path d="M0.935342 17.3211H12.0629C12.5745 17.3211 12.9909 16.9048 12.9909 16.3932V4.63959C12.9909 4.62536 12.9847 4.61299 12.9828 4.59938C12.9811 4.58642 12.9784 4.5736 12.9748 4.56103C12.9627 4.5083 12.9366 4.4598 12.8993 4.4206L8.56964 0.090936C8.52058 0.0445889 8.45788 0.0153013 8.39086 0.00742335C8.37787 0.00618612 8.3655 0 8.35127 0H0.93163C0.418182 0 0 0.416326 0 0.927919V16.3932C0 16.9048 0.419419 17.3211 0.935342 17.3211ZM8.66057 1.05597L11.9349 4.33029H8.96988C8.88785 4.33029 8.80917 4.2977 8.75117 4.23969C8.69316 4.18169 8.66057 4.10301 8.66057 4.02098V1.05597ZM0.618612 0.927919C0.618612 0.757182 0.759037 0.618612 0.93163 0.618612H8.04196V4.02098C8.04196 4.53257 8.45829 4.9489 8.96988 4.9489H12.3722V16.3932C12.3722 16.4753 12.3397 16.5539 12.2817 16.6119C12.2236 16.6699 12.145 16.7025 12.0629 16.7025H0.935342C0.894235 16.703 0.853434 16.6954 0.815269 16.6801C0.777104 16.6649 0.742323 16.6422 0.712911 16.6135C0.6835 16.5848 0.660034 16.5505 0.643854 16.5127C0.627674 16.4749 0.619097 16.4343 0.618612 16.3932V0.927919Z" fill="#2C2C2C"/>
</svg>
