<svg width="18" height="22" viewBox="0 0 18 22" fill="none" xmlns="http://www.w3.org/2000/svg">
<path d="M15.9974 1.93341H11.2555C11.0659 1.37003 10.7043 0.880368 10.2216 0.533484C9.73891 0.186601 9.1595 0 8.56509 0C7.97068 0 7.39127 0.186601 6.90857 0.533484C6.42588 0.880368 6.06425 1.37003 5.87471 1.93341H1.3172C1.15591 1.91008 0.991509 1.92122 0.834842 1.9661C0.678176 2.01098 0.532807 2.08856 0.40833 2.19375C0.283852 2.29893 0.183096 2.42932 0.11271 2.5763C0.0423243 2.72328 0.00390916 2.88352 0 3.04644V19.9198C0.000862346 20.0668 0.030677 20.2122 0.0877413 20.3477C0.144806 20.4832 0.228002 20.6062 0.33258 20.7095C0.437159 20.8129 0.561071 20.8946 0.697241 20.9501C0.833412 21.0056 0.979174 21.0337 1.12621 21.0328H15.9974C16.1444 21.0337 16.2902 21.0056 16.4264 20.9501C16.5625 20.8946 16.6864 20.8129 16.791 20.7095C16.8956 20.6062 16.9788 20.4832 17.0359 20.3477C17.0929 20.2122 17.1227 20.0668 17.1236 19.9198V3.04644C17.1227 2.89941 17.0929 2.75399 17.0359 2.61848C16.9788 2.48297 16.8956 2.36003 16.791 2.25668C16.6864 2.15332 16.5625 2.07158 16.4264 2.01611C16.2902 1.96064 16.1444 1.93254 15.9974 1.93341V1.93341ZM4.14259 3.90921C4.14259 3.73454 4.21198 3.56702 4.33549 3.44351C4.459 3.32 4.62652 3.25061 4.80119 3.25061H7.06678V2.83569C7.06678 2.43133 7.22741 2.04352 7.51334 1.75759C7.79927 1.47167 8.18707 1.31103 8.59143 1.31103C8.9958 1.31103 9.3836 1.47167 9.66953 1.75759C9.95546 2.04352 10.1161 2.43133 10.1161 2.83569V3.28354H12.3817C12.5563 3.28354 12.7239 3.35293 12.8474 3.47644C12.9709 3.59995 13.0403 3.76747 13.0403 3.94214V5.12762H4.11625L4.14259 3.90921ZM13.7055 9.98808L7.69903 15.9945L4.24797 12.5435C4.0733 12.3688 3.97517 12.1319 3.97517 11.8849C3.97517 11.6378 4.0733 11.4009 4.24797 11.2263C4.42264 11.0516 4.65955 10.9535 4.90657 10.9535C5.15359 10.9535 5.3905 11.0516 5.56517 11.2263L7.7122 13.3733L12.4146 8.67089C12.5893 8.49621 12.8262 8.39808 13.0732 8.39808C13.3202 8.39808 13.5571 8.49621 13.7318 8.67089C13.9065 8.84556 14.0046 9.08246 14.0046 9.32948C14.0046 9.57651 13.9065 9.81341 13.7318 9.98808H13.7055Z" fill="#2C2C2C"/>
</svg>
