<svg width="14" height="18" viewBox="0 0 14 18" fill="none" xmlns="http://www.w3.org/2000/svg">
<path d="M5.30014 1.09306H8.08389V4.49543C8.08389 5.00702 8.50022 5.42335 9.01181 5.42335H12.4142V16.8677C12.4142 16.9497 12.3816 17.0284 12.3236 17.0864C12.2656 17.1444 12.1869 17.177 12.1049 17.177H0.977273C0.936166 17.1775 0.895365 17.1699 0.8572 17.1546C0.819035 17.1393 0.784254 17.1167 0.754843 17.0879C0.725431 17.0592 0.701965 17.025 0.685785 16.9872C0.669605 16.9494 0.661028 16.9088 0.660544 16.8677V16.2491C0.660544 16.167 0.627956 16.0884 0.56995 16.0303C0.511944 15.9723 0.43327 15.9398 0.351237 15.9398C0.269204 15.9398 0.190531 15.9723 0.132525 16.0303C0.0745184 16.0884 0.0419312 16.167 0.0419312 16.2491V16.8677C0.0419312 17.3793 0.46135 17.7956 0.977273 17.7956H12.1049C12.6165 17.7956 13.0328 17.3793 13.0328 16.8677V5.11404C13.0328 5.09981 13.0266 5.08744 13.0247 5.07383C13.023 5.06086 13.0203 5.04804 13.0167 5.03548C13.0046 4.98275 12.9785 4.93425 12.9412 4.89505L8.61157 0.565382C8.56284 0.51865 8.49994 0.489483 8.43279 0.482488C8.4198 0.480632 8.40743 0.474446 8.3932 0.474446H5.30014C5.2181 0.474446 5.13943 0.507034 5.08142 0.56504C5.02342 0.623046 4.99083 0.701719 4.99083 0.783753C4.99083 0.865786 5.02342 0.944459 5.08142 1.00246C5.13943 1.06047 5.2181 1.09306 5.30014 1.09306ZM9.01181 4.80473C8.92978 4.80473 8.8511 4.77215 8.7931 4.71414C8.73509 4.65613 8.7025 4.57746 8.7025 4.49543V1.53042L11.9768 4.80473H9.01181Z" fill="#2C2C2C"/>
</svg>
